<svg id="visual" viewBox="0 0 900 600" width="900" height="600" xmlns="http://www.w3.org/2000/svg" xmlns:xlink="http://www.w3.org/1999/xlink" version="1.1"><path d="M0 211L13.7 198C27.3 185 54.7 159 82 159C109.3 159 136.7 185 163.8 198C191 211 218 211 245.2 217C272.3 223 299.7 235 327 213C354.3 191 381.7 135 409 138C436.3 141 463.7 203 491 231C518.3 259 545.7 253 573 226C600.3 199 627.7 151 654.8 139C682 127 709 151 736.2 173C763.3 195 790.7 215 818 220C845.3 225 872.7 215 886.3 210L900 205L900 0L886.3 0C872.7 0 845.3 0 818 0C790.7 0 763.3 0 736.2 0C709 0 682 0 654.8 0C627.7 0 600.3 0 573 0C545.7 0 518.3 0 491 0C463.7 0 436.3 0 409 0C381.7 0 354.3 0 327 0C299.7 0 272.3 0 245.2 0C218 0 191 0 163.8 0C136.7 0 109.3 0 82 0C54.7 0 27.3 0 13.7 0L0 0Z" fill="#0148a4"></path><path d="M0 247L13.7 242C27.3 237 54.7 227 82 238C109.3 249 136.7 281 163.8 286C191 291 218 269 245.2 274C272.3 279 299.7 311 327 295C354.3 279 381.7 215 409 214C436.3 213 463.7 275 491 297C518.3 319 545.7 301 573 278C600.3 255 627.7 227 654.8 215C682 203 709 207 736.2 225C763.3 243 790.7 275 818 281C845.3 287 872.7 267 886.3 257L900 247L900 203L886.3 208C872.7 213 845.3 223 818 218C790.7 213 763.3 193 736.2 171C709 149 682 125 654.8 137C627.7 149 600.3 197 573 224C545.7 251 518.3 257 491 229C463.7 201 436.3 139 409 136C381.7 133 354.3 189 327 211C299.7 233 272.3 221 245.2 215C218 209 191 209 163.8 196C136.7 183 109.3 157 82 157C54.7 157 27.3 183 13.7 196L0 209Z" fill="#0069b0"></path><path d="M0 313L13.7 311C27.3 309 54.7 305 82 326C109.3 347 136.7 393 163.8 394C191 395 218 351 245.2 347C272.3 343 299.7 379 327 380C354.3 381 381.7 347 409 346C436.3 345 463.7 377 491 392C518.3 407 545.7 405 573 385C600.3 365 627.7 327 654.8 309C682 291 709 293 736.2 309C763.3 325 790.7 355 818 358C845.3 361 872.7 337 886.3 325L900 313L900 245L886.3 255C872.7 265 845.3 285 818 279C790.7 273 763.3 241 736.2 223C709 205 682 201 654.8 213C627.7 225 600.3 253 573 276C545.7 299 518.3 317 491 295C463.7 273 436.3 211 409 212C381.7 213 354.3 277 327 293C299.7 309 272.3 277 245.2 272C218 267 191 289 163.8 284C136.7 279 109.3 247 82 236C54.7 225 27.3 235 13.7 240L0 245Z" fill="#0085b1"></path><path d="M0 487L13.7 486C27.3 485 54.7 483 82 489C109.3 495 136.7 509 163.8 514C191 519 218 515 245.2 512C272.3 509 299.7 507 327 513C354.3 519 381.7 533 409 537C436.3 541 463.7 535 491 530C518.3 525 545.7 521 573 517C600.3 513 627.7 509 654.8 506C682 503 709 501 736.2 502C763.3 503 790.7 507 818 516C845.3 525 872.7 539 886.3 546L900 553L900 311L886.3 323C872.7 335 845.3 359 818 356C790.7 353 763.3 323 736.2 307C709 291 682 289 654.8 307C627.7 325 600.3 363 573 383C545.7 403 518.3 405 491 390C463.7 375 436.3 343 409 344C381.7 345 354.3 379 327 378C299.7 377 272.3 341 245.2 345C218 349 191 393 163.8 392C136.7 391 109.3 345 82 324C54.7 303 27.3 307 13.7 309L0 311Z" fill="#009da4"></path><path d="M0 601L13.7 601C27.3 601 54.7 601 82 601C109.3 601 136.7 601 163.8 601C191 601 218 601 245.2 601C272.3 601 299.7 601 327 601C354.3 601 381.7 601 409 601C436.3 601 463.7 601 491 601C518.3 601 545.7 601 573 601C600.3 601 627.7 601 654.8 601C682 601 709 601 736.2 601C763.3 601 790.7 601 818 601C845.3 601 872.7 601 886.3 601L900 601L900 551L886.3 544C872.7 537 845.3 523 818 514C790.7 505 763.3 501 736.2 500C709 499 682 501 654.8 504C627.7 507 600.3 511 573 515C545.7 519 518.3 523 491 528C463.7 533 436.3 539 409 535C381.7 531 354.3 517 327 511C299.7 505 272.3 507 245.2 510C218 513 191 517 163.8 512C136.7 507 109.3 493 82 487C54.7 481 27.3 483 13.7 484L0 485Z" fill="#00ac69"></path></svg>